<svg width="515" height="233" viewBox="0 0 515 233" fill="none" xmlns="http://www.w3.org/2000/svg">
<rect width="515" height="233" fill="white"/>
<path d="M86.272 127.703C86.6554 125.906 88.1341 123.83 90.7081 121.477C93.2821 119.123 96.4585 117.925 100.237 117.882C102.154 117.882 103.907 118.267 105.495 119.037C107.083 119.808 108.261 120.771 109.027 121.926C111.328 119.23 114.093 117.882 117.324 117.882C119.351 117.882 121.103 118.353 122.582 119.294C124.061 120.236 124.827 121.498 124.882 123.082C124.882 124.323 124.499 125.328 123.732 126.099C122.965 126.869 122.226 127.34 121.514 127.511C120.802 127.682 120.172 127.768 119.625 127.768C118.584 127.768 117.735 127.532 117.078 127.061C116.421 126.591 116.092 125.97 116.092 125.2C116.092 123.231 117.461 121.883 120.2 121.156C119.597 120.599 118.502 120.321 116.914 120.321C116.202 120.321 115.681 120.364 115.353 120.45C113.272 121.134 111.738 122.547 110.753 124.686C107.467 134.144 105.824 139.665 105.824 141.248C105.824 142.446 106.262 143.302 107.138 143.816C108.014 144.329 108.973 144.586 110.013 144.586C112.04 144.586 114.038 143.88 116.01 142.468C117.982 141.055 119.323 139.322 120.035 137.268C120.2 136.84 120.364 136.605 120.528 136.562C120.693 136.519 121.131 136.476 121.843 136.434H122.171C122.993 136.434 123.404 136.605 123.404 136.947C123.404 136.99 123.349 137.225 123.239 137.653C122.363 140.093 120.665 142.254 118.146 144.137C115.627 146.02 112.697 146.961 109.356 146.961C105.522 146.961 102.62 145.613 100.648 142.917C98.4027 145.57 95.8287 146.897 92.9261 146.897H92.4332C89.7497 146.897 87.8329 146.341 86.6828 145.228C85.5327 144.115 84.9303 142.938 84.8755 141.697C84.8755 140.328 85.3958 139.215 86.4363 138.359C87.4769 137.503 88.7091 137.076 90.133 137.076C92.488 137.076 93.6655 137.974 93.6655 139.772C93.6655 140.628 93.3369 141.376 92.6797 142.018C92.0225 142.66 91.3927 143.088 90.7902 143.302C90.1878 143.516 89.8318 143.623 89.7223 143.623L89.4758 143.687C89.4758 143.73 89.6401 143.816 89.9687 143.944C90.2973 144.073 90.7355 144.222 91.2831 144.393C91.8308 144.565 92.3511 144.629 92.844 144.586C94.8156 144.586 96.5133 143.623 97.9372 141.697C98.4301 141.013 99.0599 139.558 99.8267 137.332C100.593 135.107 101.36 132.796 102.127 130.399C102.894 128.003 103.332 126.591 103.441 126.163C103.715 125.007 103.852 124.173 103.852 123.659C103.852 122.461 103.441 121.605 102.62 121.092C101.798 120.578 100.867 120.321 99.8267 120.321C97.636 120.321 95.5823 121.006 93.6655 122.375C91.7486 123.745 90.4069 125.499 89.6401 127.639C89.5306 128.024 89.3937 128.238 89.2294 128.281C89.0651 128.324 88.627 128.367 87.915 128.41H86.7649C86.4363 128.153 86.272 127.917 86.272 127.703Z" fill="black"/>
<path d="M92.9102 114.03V111.077H122.566V114.03H92.9102Z" fill="black"/>
<path d="M156.411 123.98C156.411 123.424 156.794 122.996 157.561 122.696H209.89C210.712 123.039 211.123 123.467 211.123 123.98C211.123 124.451 210.739 124.858 209.972 125.2L183.849 125.264H157.726C156.849 125.05 156.411 124.622 156.411 123.98ZM156.411 136.434C156.411 135.792 156.849 135.364 157.726 135.15H209.972C210.739 135.578 211.123 136.006 211.123 136.434C211.123 136.99 210.712 137.418 209.89 137.717H157.561C156.794 137.418 156.411 136.99 156.411 136.434Z" fill="black"/>
<path d="M238.807 46.6731C238.971 46.5875 250.691 46.5447 273.967 46.5447H308.798L312.166 53.6059C312.769 54.9326 313.371 56.2378 313.973 57.5217C314.576 58.8055 315.041 59.7898 315.37 60.4745C315.699 61.1592 315.863 61.523 315.863 61.5658H314.22L312.577 61.5016C311.317 58.8483 309.318 56.623 306.58 54.8256C303.842 53.0282 300.857 51.7229 297.626 50.9098C294.723 50.1395 291.382 49.6474 287.603 49.4334C283.825 49.2194 277.828 49.1124 269.613 49.1124H260.001C252.553 49.1124 248.829 49.1338 248.829 49.1766C248.993 49.305 253.511 54.1195 262.384 63.62C271.256 73.1205 275.719 77.9349 275.774 78.0633C276.103 78.4484 276.157 78.7694 275.938 79.0262L274.049 80.8236C272.734 82.0218 270.818 83.7764 268.298 86.0874C265.779 88.3983 263.315 90.6878 260.905 92.956L246.036 106.693C246.036 106.736 251.868 106.757 263.534 106.757C264.958 106.757 266.984 106.757 269.613 106.757C272.242 106.757 274.158 106.779 275.363 106.822C284.838 106.822 292.286 106.244 297.708 105.088C303.13 103.933 307.456 101.387 310.687 97.4494C311.235 96.7647 311.865 95.7162 312.577 94.304H315.863L308.798 110.673L273.967 110.737C250.746 110.737 239.053 110.695 238.889 110.609C238.56 110.523 238.396 110.331 238.396 110.031C238.396 109.817 240.094 108.148 243.489 105.024C247.213 101.601 250.691 98.3909 253.922 95.3953L268.956 81.4655C268.956 81.4227 263.862 75.9449 253.676 65.0322L238.478 48.6631L238.396 47.957C238.396 47.2722 238.533 46.8443 238.807 46.6731Z" fill="black"/>
<path d="M321.765 51.0376C321.804 50.8561 321.862 50.614 321.939 50.3115C322.017 50.0089 322.249 49.434 322.636 48.5869C323.024 47.7397 323.411 47.0287 323.798 46.4538C324.185 45.879 324.824 45.3192 325.715 44.7746C326.605 44.23 327.496 43.9728 328.386 44.0031C329.78 44.0031 330.942 44.2754 331.871 44.82C332.8 45.3646 333.381 45.879 333.613 46.3631C333.846 46.8472 333.962 47.1648 333.962 47.3161C333.962 47.3766 333.981 47.4069 334.02 47.4069L334.659 46.9077C337.021 44.9713 339.712 44.0031 342.732 44.0031C344.823 44.0031 346.507 44.4115 347.785 45.2285C349.063 46.0454 349.721 47.2405 349.759 48.8138C349.798 50.3871 349.063 52.7622 347.552 55.9391C346.042 59.116 345.307 61.0373 345.345 61.7029C345.345 62.4896 345.675 62.8829 346.333 62.8829C346.565 62.8829 346.739 62.8678 346.855 62.8375C347.978 62.6862 348.985 62.1114 349.876 61.1129C350.766 60.1145 351.444 58.9042 351.908 57.4822C351.986 57.2401 352.373 57.1191 353.07 57.1191C353.844 57.1191 354.232 57.2401 354.232 57.4822C354.232 57.5124 354.154 57.7394 353.999 58.1629C353.69 59.0404 353.264 59.9027 352.722 60.7498C352.179 61.597 351.289 62.4442 350.05 63.2913C348.811 64.1385 347.475 64.547 346.042 64.5167C344.223 64.5167 342.906 64.1083 342.093 63.2913C341.28 62.4744 340.873 61.6273 340.873 60.7498C340.873 60.175 341.57 58.3596 342.964 55.3037C344.358 52.2479 345.074 49.9484 345.113 48.4053C345.113 46.6202 344.261 45.7277 342.558 45.7277H342.267C338.937 45.7277 336.13 47.2556 333.846 50.3115L333.439 50.8561L331.522 56.9376C330.245 60.9011 329.509 63.0342 329.315 63.3367C328.812 64.1536 327.98 64.5621 326.818 64.5621C326.315 64.5621 325.908 64.4713 325.598 64.2898C325.289 64.1083 325.076 63.9267 324.96 63.7452C324.843 63.5637 324.805 63.4124 324.843 63.2913C324.843 62.898 325.579 60.4321 327.05 55.8937C328.522 51.3553 329.296 48.8894 329.374 48.4961C329.412 48.3448 329.432 47.9969 329.432 47.4523C329.432 46.2723 328.967 45.6823 328.038 45.6823C326.566 45.6823 325.347 47.1951 324.379 50.2207C324.146 50.8258 324.03 51.1435 324.03 51.1738C323.953 51.3553 323.585 51.4461 322.927 51.4461H322.114C321.881 51.2645 321.765 51.1284 321.765 51.0376Z" fill="black"/>
<path d="M331.232 85.7793C331.232 85.0531 331.6 84.4177 332.336 83.8731C333.071 83.3285 333.923 83.0411 334.891 83.0108C335.588 83.0108 336.169 83.1924 336.634 83.5554C337.098 83.9185 337.35 84.3723 337.389 84.917C337.389 85.6128 337.001 86.2482 336.227 86.8231C335.453 87.398 334.601 87.7005 333.671 87.7308C333.091 87.7308 332.549 87.5795 332.045 87.2769C331.542 86.9744 331.271 86.4751 331.232 85.7793ZM321.765 99.9845C321.765 99.7424 321.939 99.2735 322.288 98.5776C322.636 97.8817 323.101 97.1102 323.682 96.263C324.263 95.4158 325.114 94.6443 326.237 93.9484C327.36 93.2525 328.522 92.9197 329.722 92.9499C331.232 92.9499 332.49 93.2979 333.497 93.9938C334.504 94.6897 335.027 95.6276 335.065 96.8076C335.065 97.322 334.794 98.1691 334.252 99.3491C333.71 100.529 332.936 102.118 331.929 104.114C330.922 106.111 330.109 107.821 329.49 109.243C329.296 109.908 329.199 110.393 329.199 110.695C329.199 111.452 329.528 111.83 330.187 111.83C330.535 111.83 330.903 111.784 331.29 111.694C331.677 111.603 332.123 111.391 332.626 111.058C333.129 110.725 333.652 110.196 334.194 109.47C334.736 108.744 335.22 107.851 335.646 106.792C335.762 106.429 335.859 106.217 335.937 106.157C336.014 106.096 336.343 106.066 336.924 106.066C337.698 106.066 338.085 106.217 338.085 106.52C338.085 106.762 337.911 107.231 337.563 107.927C337.214 108.623 336.73 109.394 336.111 110.241C335.491 111.088 334.62 111.845 333.497 112.511C332.374 113.176 331.174 113.509 329.896 113.509C328.657 113.509 327.515 113.191 326.47 112.556C325.424 111.921 324.882 110.952 324.843 109.651C324.843 109.137 324.94 108.653 325.134 108.199C325.327 107.745 326.16 106.021 327.631 103.025C329.103 99.9694 329.954 98.1389 330.187 97.5337C330.419 96.9286 330.555 96.3386 330.593 95.7638C330.593 95.0376 330.264 94.6745 329.606 94.6745H329.49C328.328 94.6745 327.263 95.1738 326.295 96.1722C325.327 97.1707 324.592 98.4414 324.088 99.9845C324.05 100.015 324.011 100.06 323.972 100.121C323.933 100.181 323.914 100.227 323.914 100.257C323.914 100.287 323.875 100.317 323.798 100.348C323.72 100.378 323.662 100.393 323.624 100.393C323.585 100.393 323.508 100.393 323.391 100.393C323.275 100.393 323.12 100.393 322.927 100.393H322.114C321.881 100.211 321.765 100.075 321.765 99.9845Z" fill="black"/>
<path d="M343.835 97.2615C343.835 96.8682 344.106 96.5656 344.648 96.3538H381.645C382.226 96.5959 382.516 96.8984 382.516 97.2615C382.516 97.5943 382.245 97.8817 381.703 98.1238L363.234 98.1692H344.764C344.145 98.0179 343.835 97.7153 343.835 97.2615ZM343.835 106.066C343.835 105.612 344.145 105.31 344.764 105.158H381.703C382.245 105.461 382.516 105.763 382.516 106.066C382.516 106.459 382.226 106.762 381.645 106.974H344.648C344.106 106.762 343.835 106.459 343.835 106.066Z" fill="black"/>
<path d="M398.14 86.7777L397.385 87.0046C396.843 87.1559 396.068 87.3072 395.061 87.4585C394.055 87.6098 392.932 87.7157 391.693 87.7762H390.589V85.6885H391.693C393.513 85.628 395.197 85.4011 396.746 85.0077C398.295 84.6144 399.379 84.2513 399.998 83.9185C400.618 83.5857 401.16 83.2529 401.624 82.9201C401.702 82.8293 401.934 82.7839 402.321 82.7839C402.67 82.7839 402.999 82.8747 403.309 83.0562V96.6261L403.367 110.241C403.638 110.453 403.87 110.589 404.064 110.65C404.257 110.71 404.722 110.771 405.458 110.831C406.193 110.892 407.394 110.922 409.059 110.922H410.569V113.01H409.93C409.117 112.919 406.039 112.874 400.695 112.874C395.429 112.874 392.39 112.919 391.577 113.01H390.88V110.922H392.39C393.242 110.922 393.977 110.922 394.597 110.922C395.216 110.922 395.7 110.907 396.049 110.877C396.397 110.846 396.707 110.801 396.978 110.741C397.249 110.68 397.404 110.65 397.443 110.65C397.481 110.65 397.598 110.574 397.791 110.423C397.985 110.272 398.101 110.211 398.14 110.241V86.7777Z" fill="black"/>
<path d="M303.442 171.868C303.497 171.611 303.579 171.269 303.688 170.841C303.798 170.413 304.126 169.6 304.674 168.401C305.222 167.203 305.769 166.198 306.317 165.384C306.865 164.571 307.768 163.78 309.028 163.009C310.288 162.239 311.547 161.875 312.807 161.918C314.778 161.918 316.421 162.303 317.736 163.074C319.05 163.844 319.872 164.571 320.2 165.256C320.529 165.941 320.693 166.39 320.693 166.604C320.693 166.69 320.721 166.732 320.775 166.732L321.679 166.026C325.02 163.287 328.826 161.918 333.098 161.918C336.055 161.918 338.437 162.496 340.245 163.651C342.052 164.807 342.983 166.497 343.038 168.722C343.093 170.948 342.052 174.307 339.916 178.801C337.78 183.294 336.74 186.012 336.795 186.953C336.795 188.066 337.26 188.622 338.191 188.622C338.52 188.622 338.766 188.601 338.93 188.558C340.519 188.344 341.943 187.531 343.202 186.119C344.462 184.706 345.42 182.995 346.077 180.983C346.187 180.641 346.735 180.47 347.72 180.47C348.816 180.47 349.363 180.641 349.363 180.983C349.363 181.026 349.254 181.347 349.035 181.946C348.597 183.187 347.994 184.407 347.227 185.605C346.461 186.803 345.201 188.002 343.449 189.2C341.696 190.398 339.807 190.976 337.78 190.933C335.206 190.933 333.344 190.355 332.194 189.2C331.044 188.044 330.469 186.846 330.469 185.605C330.469 184.792 331.455 182.224 333.426 177.902C335.398 173.58 336.411 170.327 336.466 168.145C336.466 165.62 335.261 164.357 332.851 164.357H332.441C327.731 164.357 323.76 166.519 320.529 170.841L319.954 171.611L317.243 180.213C315.436 185.819 314.395 188.836 314.121 189.264C313.409 190.42 312.232 190.997 310.589 190.997C309.877 190.997 309.302 190.869 308.864 190.612C308.426 190.355 308.124 190.099 307.96 189.842C307.796 189.585 307.741 189.371 307.796 189.2C307.796 188.644 308.836 185.156 310.917 178.736C312.999 172.317 314.094 168.829 314.203 168.273C314.258 168.059 314.286 167.567 314.286 166.797C314.286 165.128 313.628 164.293 312.314 164.293C310.233 164.293 308.508 166.433 307.139 170.712C306.81 171.568 306.646 172.018 306.646 172.06C306.536 172.317 306.016 172.446 305.085 172.446H303.935C303.606 172.189 303.442 171.996 303.442 171.868Z" fill="black"/>
<path d="M427.143 132.133H225.581V128.281H427.143V132.133Z" fill="black"/>
</svg>
