<svg width="515" height="233" viewBox="0 0 515 233" fill="none" xmlns="http://www.w3.org/2000/svg">
<rect width="515" height="233" fill="white"/>
<g clip-path="url(#clip0)">
<path d="M57.9835 111.665C58.1604 110.491 58.8427 109.135 60.0304 107.598C61.2181 106.061 62.6838 105.278 64.4274 105.251C65.3119 105.251 66.1205 105.502 66.8533 106.005C67.5862 106.508 68.1295 107.137 68.4833 107.892C69.5446 106.131 70.8208 105.251 72.3117 105.251C73.2467 105.251 74.0554 105.558 74.7376 106.173C75.4199 106.788 75.7737 107.612 75.799 108.646C75.799 109.457 75.6221 110.113 75.2683 110.617C74.9145 111.12 74.5734 111.427 74.2449 111.539C73.9164 111.651 73.6258 111.707 73.3731 111.707C72.8929 111.707 72.5012 111.553 72.198 111.245C71.8947 110.938 71.7431 110.533 71.7431 110.03C71.7431 108.744 72.3749 107.864 73.6384 107.389C73.3604 107.025 72.855 106.844 72.1222 106.844C71.7937 106.844 71.5536 106.871 71.402 106.927C70.4417 107.375 69.7341 108.297 69.2793 109.694C67.7631 115.871 67.005 119.476 67.005 120.51C67.005 121.293 67.2071 121.852 67.6114 122.187C68.0158 122.522 68.458 122.69 68.9381 122.69C69.8731 122.69 70.7955 122.229 71.7052 121.307C72.6149 120.384 73.2341 119.253 73.5626 117.911C73.6384 117.632 73.7142 117.478 73.79 117.45C73.8658 117.422 74.068 117.394 74.3965 117.366H74.5481C74.9272 117.366 75.1167 117.478 75.1167 117.701C75.1167 117.729 75.0914 117.883 75.0409 118.163C74.6366 119.756 73.8532 121.167 72.6908 122.397C71.5283 123.626 70.1764 124.241 68.6349 124.241C66.866 124.241 65.5267 123.361 64.6169 121.6C63.5809 123.333 62.3932 124.199 61.0538 124.199H60.8264C59.5882 124.199 58.7037 123.836 58.173 123.109C57.6424 122.383 57.3644 121.614 57.3391 120.804C57.3391 119.909 57.5792 119.183 58.0593 118.624C58.5394 118.065 59.108 117.785 59.7651 117.785C60.8517 117.785 61.395 118.372 61.395 119.546C61.395 120.105 61.2434 120.594 60.9401 121.013C60.6369 121.433 60.3463 121.712 60.0683 121.852C59.7903 121.991 59.6261 122.061 59.5755 122.061L59.4618 122.103C59.4618 122.131 59.5376 122.187 59.6892 122.271C59.8409 122.355 60.043 122.453 60.2957 122.564C60.5484 122.676 60.7885 122.718 61.0159 122.69C61.9257 122.69 62.709 122.061 63.3661 120.804C63.5935 120.357 63.8841 119.406 64.2379 117.953C64.5917 116.5 64.9454 114.99 65.2992 113.425C65.653 111.86 65.8552 110.938 65.9057 110.658C66.0321 109.904 66.0952 109.359 66.0952 109.024C66.0952 108.241 65.9057 107.682 65.5267 107.347C65.1476 107.011 64.718 106.844 64.2379 106.844C63.2271 106.844 62.2794 107.291 61.395 108.185C60.5105 109.079 59.8914 110.225 59.5376 111.623C59.4871 111.874 59.4239 112.014 59.3481 112.042C59.2723 112.07 59.0701 112.098 58.7416 112.126H58.2109C58.0593 111.958 57.9835 111.804 57.9835 111.665Z" fill="black"/>
<path d="M61.0461 102.735V100.807H74.73V102.735H61.0461Z" fill="black"/>
<path d="M90.3469 109.233C90.3469 108.87 90.5238 108.59 90.8776 108.395H115.023C115.402 108.618 115.592 108.898 115.592 109.233C115.592 109.541 115.415 109.806 115.061 110.03L103.007 110.072H90.9534C90.5491 109.932 90.3469 109.652 90.3469 109.233ZM90.3469 117.366C90.3469 116.947 90.5491 116.667 90.9534 116.528H115.061C115.415 116.807 115.592 117.087 115.592 117.366C115.592 117.729 115.402 118.009 115.023 118.204H90.8776C90.5238 118.009 90.3469 117.729 90.3469 117.366Z" fill="black"/>
<path d="M138.555 83.3252C138.732 82.1513 139.414 80.7959 140.602 79.2587C141.79 77.7216 143.255 76.939 144.999 76.9111C145.883 76.9111 146.692 77.1626 147.425 77.6657C148.158 78.1687 148.701 78.7976 149.055 79.5522C150.116 77.7914 151.392 76.9111 152.883 76.9111C153.818 76.9111 154.627 77.2185 155.309 77.8333C155.991 78.4482 156.345 79.2727 156.371 80.3068C156.371 81.1173 156.194 81.774 155.84 82.2771C155.486 82.7802 155.145 83.0876 154.816 83.1994C154.488 83.3112 154.197 83.3671 153.945 83.3671C153.464 83.3671 153.073 83.2134 152.77 82.9059C152.466 82.5985 152.315 82.1933 152.315 81.6902C152.315 80.4046 152.946 79.5242 154.21 79.0491C153.932 78.6858 153.427 78.5041 152.694 78.5041C152.365 78.5041 152.125 78.5321 151.974 78.5879C151.013 79.0351 150.306 79.9574 149.851 81.3548C148.335 87.5314 147.576 91.1367 147.576 92.1708C147.576 92.9533 147.779 93.5123 148.183 93.8477C148.587 94.183 149.03 94.3507 149.51 94.3507C150.445 94.3507 151.367 93.8896 152.277 92.9673C153.186 92.045 153.806 90.9131 154.134 89.5716C154.21 89.2921 154.286 89.1384 154.362 89.1104C154.437 89.0825 154.64 89.0545 154.968 89.0266H155.12C155.499 89.0266 155.688 89.1384 155.688 89.362C155.688 89.3899 155.663 89.5436 155.612 89.8231C155.208 91.4162 154.425 92.8276 153.262 94.0573C152.1 95.287 150.748 95.9019 149.206 95.9019C147.438 95.9019 146.098 95.0215 145.188 93.2608C144.152 94.9935 142.965 95.8599 141.625 95.8599H141.398C140.16 95.8599 139.275 95.4966 138.745 94.77C138.214 94.0433 137.936 93.2747 137.911 92.4642C137.911 91.5699 138.151 90.8432 138.631 90.2843C139.111 89.7253 139.68 89.4458 140.337 89.4458C141.423 89.4458 141.967 90.0327 141.967 91.2066C141.967 91.7655 141.815 92.2546 141.512 92.6738C141.208 93.0931 140.918 93.3725 140.64 93.5123C140.362 93.652 140.198 93.7219 140.147 93.7219L140.033 93.7638C140.033 93.7918 140.109 93.8477 140.261 93.9315C140.412 94.0154 140.615 94.1132 140.867 94.225C141.12 94.3368 141.36 94.3787 141.587 94.3507C142.497 94.3507 143.281 93.7219 143.938 92.4642C144.165 92.0171 144.456 91.0668 144.809 89.6135C145.163 88.1602 145.517 86.651 145.871 85.0859C146.225 83.5208 146.427 82.5985 146.477 82.319C146.604 81.5644 146.667 81.0194 146.667 80.6841C146.667 79.9015 146.477 79.3426 146.098 79.0072C145.719 78.6718 145.29 78.5041 144.809 78.5041C143.799 78.5041 142.851 78.9513 141.967 79.8456C141.082 80.74 140.463 81.8858 140.109 83.2832C140.059 83.5348 139.995 83.6745 139.92 83.7025C139.844 83.7304 139.642 83.7584 139.313 83.7863H138.782C138.631 83.6186 138.555 83.4649 138.555 83.3252Z" fill="black"/>
<path d="M163.974 84.5977L163.625 84.7459C163.375 84.8447 163.018 84.9435 162.554 85.0423C162.089 85.1411 161.571 85.2102 160.999 85.2497H160.49V83.8864H160.999C161.839 83.8468 162.616 83.6986 163.331 83.4418C164.045 83.1849 164.546 82.9478 164.831 82.7304C165.117 82.5131 165.367 82.2957 165.582 82.0784C165.618 82.0191 165.725 81.9895 165.903 81.9895C166.064 81.9895 166.216 82.0487 166.359 82.1673V91.0294L166.386 99.9211C166.511 100.059 166.618 100.148 166.707 100.188C166.797 100.227 167.011 100.267 167.351 100.306C167.69 100.346 168.244 100.366 169.012 100.366H169.709V101.729H169.414C169.039 101.67 167.619 101.64 165.153 101.64C162.723 101.64 161.321 101.67 160.946 101.729H160.624V100.366H161.321C161.714 100.366 162.053 100.366 162.339 100.366C162.625 100.366 162.848 100.356 163.009 100.336C163.17 100.316 163.313 100.287 163.438 100.247C163.563 100.208 163.634 100.188 163.652 100.188C163.67 100.188 163.724 100.138 163.813 100.04C163.902 99.9408 163.956 99.9013 163.974 99.9211V84.5977Z" fill="black"/>
<path d="M184.11 85.5051C184.11 85.5051 184.11 85.3235 184.11 84.9601C184.11 84.5968 184.287 84.3173 184.64 84.1217H195.974V77.8333L196.012 71.545C196.265 71.1817 196.505 71 196.732 71C197.061 71 197.313 71.2096 197.49 71.6288V84.1217H208.786C209.165 84.3453 209.355 84.6247 209.355 84.9601C209.355 85.2955 209.165 85.575 208.786 85.7986H197.49V98.2914C197.288 98.6827 197.061 98.8783 196.808 98.8783H196.732H196.656C196.353 98.8783 196.126 98.6827 195.974 98.2914V85.7986H184.64C184.287 85.6029 184.11 85.3235 184.11 84.9601V85.5051Z" fill="black"/>
<path d="M221.871 83.3252C222.048 82.1513 222.73 80.7959 223.918 79.2587C225.106 77.7216 226.571 76.939 228.315 76.9111C229.199 76.9111 230.008 77.1626 230.741 77.6657C231.474 78.1687 232.017 78.7976 232.371 79.5522C233.432 77.7914 234.708 76.9111 236.199 76.9111C237.134 76.9111 237.943 77.2185 238.625 77.8333C239.307 78.4482 239.661 79.2727 239.686 80.3068C239.686 81.1173 239.51 81.774 239.156 82.2771C238.802 82.7802 238.461 83.0876 238.132 83.1994C237.804 83.3112 237.513 83.3671 237.26 83.3671C236.78 83.3671 236.389 83.2134 236.085 82.9059C235.782 82.5985 235.631 82.1933 235.631 81.6902C235.631 80.4046 236.262 79.5242 237.526 79.0491C237.248 78.6858 236.742 78.5041 236.01 78.5041C235.681 78.5041 235.441 78.5321 235.289 78.5879C234.329 79.0351 233.622 79.9574 233.167 81.3548C231.651 87.5314 230.892 91.1367 230.892 92.1708C230.892 92.9533 231.095 93.5123 231.499 93.8477C231.903 94.183 232.345 94.3507 232.826 94.3507C233.761 94.3507 234.683 93.8896 235.593 92.9673C236.502 92.045 237.122 90.9131 237.45 89.5716C237.526 89.2921 237.602 89.1384 237.677 89.1104C237.753 89.0825 237.955 89.0545 238.284 89.0266H238.436C238.815 89.0266 239.004 89.1384 239.004 89.362C239.004 89.3899 238.979 89.5436 238.928 89.8231C238.524 91.4162 237.741 92.8276 236.578 94.0573C235.416 95.287 234.064 95.9019 232.522 95.9019C230.753 95.9019 229.414 95.0215 228.504 93.2608C227.468 94.9935 226.281 95.8599 224.941 95.8599H224.714C223.476 95.8599 222.591 95.4966 222.06 94.77C221.53 94.0433 221.252 93.2747 221.227 92.4642C221.227 91.5699 221.467 90.8432 221.947 90.2843C222.427 89.7253 222.995 89.4458 223.653 89.4458C224.739 89.4458 225.282 90.0327 225.282 91.2066C225.282 91.7655 225.131 92.2546 224.828 92.6738C224.524 93.0931 224.234 93.3725 223.956 93.5123C223.678 93.652 223.514 93.7219 223.463 93.7219L223.349 93.7638C223.349 93.7918 223.425 93.8477 223.577 93.9315C223.728 94.0154 223.93 94.1132 224.183 94.225C224.436 94.3368 224.676 94.3787 224.903 94.3507C225.813 94.3507 226.596 93.7219 227.254 92.4642C227.481 92.0171 227.772 91.0668 228.125 89.6135C228.479 88.1602 228.833 86.651 229.187 85.0859C229.54 83.5208 229.743 82.5985 229.793 82.319C229.92 81.5644 229.983 81.0194 229.983 80.6841C229.983 79.9015 229.793 79.3426 229.414 79.0072C229.035 78.6718 228.605 78.5041 228.125 78.5041C227.115 78.5041 226.167 78.9513 225.282 79.8456C224.398 80.74 223.779 81.8858 223.425 83.2832C223.375 83.5348 223.311 83.6745 223.236 83.7025C223.16 83.7304 222.958 83.7584 222.629 83.7863H222.098C221.947 83.6186 221.871 83.4649 221.871 83.3252Z" fill="black"/>
<path d="M244.503 89.0139C244.02 89.0139 243.636 88.8361 243.35 88.4804C243.065 88.1247 242.922 87.69 242.922 87.1763C242.922 85.7734 243.395 84.5582 244.342 83.5307C245.289 82.5032 246.468 81.9895 247.879 81.9895C249.505 81.9895 250.863 82.5427 251.953 83.6492C253.043 84.7558 253.597 86.1883 253.614 87.9469C253.614 88.7966 253.436 89.6067 253.078 90.3773C252.721 91.1479 252.292 91.8197 251.792 92.3928C251.292 92.9658 250.577 93.6969 249.648 94.5861C249.005 95.1986 248.112 96.1075 246.968 97.3128L245.387 98.9726L247.424 99.0023C250.229 99.0023 251.721 98.9529 251.899 98.8541C252.024 98.8146 252.239 97.9353 252.542 96.2162V96.1273H253.614V96.2162C253.597 96.2755 253.48 97.1745 253.266 98.9134C253.052 100.652 252.918 101.561 252.864 101.64V101.729H242.922V101.166V100.81C242.922 100.672 242.975 100.524 243.082 100.366C243.19 100.208 243.458 99.8618 243.886 99.3283C244.405 98.696 244.851 98.1427 245.226 97.6685C245.387 97.4709 245.691 97.1054 246.138 96.5719C246.584 96.0384 246.888 95.6728 247.049 95.4752C247.209 95.2776 247.469 94.9516 247.826 94.4971C248.183 94.0427 248.433 93.7068 248.576 93.4894C248.719 93.2721 248.925 92.9757 249.193 92.6002C249.461 92.2248 249.648 91.9087 249.755 91.6518C249.863 91.3949 249.997 91.1084 250.157 90.7923C250.318 90.4761 250.434 90.16 250.506 89.8438C250.577 89.5277 250.64 89.2313 250.693 88.9546C250.747 88.678 250.774 88.352 250.774 87.9765C250.774 86.7317 250.47 85.6548 249.863 84.7459C249.255 83.837 248.389 83.3825 247.263 83.3825C246.673 83.3825 246.155 83.5504 245.709 83.8864C245.262 84.2223 244.949 84.5483 244.771 84.8644C244.592 85.1806 244.503 85.3683 244.503 85.4276C244.503 85.4473 244.547 85.4572 244.637 85.4572C244.958 85.4572 245.289 85.5955 245.628 85.8722C245.968 86.1488 246.138 86.6033 246.138 87.2356C246.138 87.7296 245.995 88.1445 245.709 88.4804C245.423 88.8163 245.021 88.9942 244.503 89.0139Z" fill="black"/>
<path d="M259.003 85.5051C259.003 85.5051 259.003 85.3235 259.003 84.9601C259.003 84.5968 259.18 84.3173 259.534 84.1217H270.867V77.8333L270.905 71.545C271.158 71.1817 271.398 71 271.625 71C271.954 71 272.207 71.2096 272.384 71.6288V84.1217H283.679C284.058 84.3453 284.248 84.6247 284.248 84.9601C284.248 85.2955 284.058 85.575 283.679 85.7986H272.384V98.2914C272.181 98.6827 271.954 98.8783 271.701 98.8783H271.625H271.55C271.246 98.8783 271.019 98.6827 270.867 98.2914V85.7986H259.534C259.18 85.6029 259.003 85.3235 259.003 84.9601V85.5051Z" fill="black"/>
<path d="M289.327 92.9254C289.327 92.2546 289.542 91.6677 289.972 91.1646C290.401 90.6616 290.944 90.41 291.601 90.41C292.208 90.41 292.739 90.6336 293.194 91.0808C293.648 91.528 293.888 92.1288 293.914 92.8834C293.914 93.5821 293.699 94.183 293.269 94.6861C292.84 95.1892 292.296 95.4407 291.639 95.4407C290.982 95.4407 290.439 95.2031 290.009 94.728C289.58 94.2529 289.352 93.652 289.327 92.9254Z" fill="black"/>
<path d="M306.18 92.9254C306.18 92.2546 306.395 91.6677 306.824 91.1646C307.254 90.6616 307.797 90.41 308.454 90.41C309.061 90.41 309.591 90.6336 310.046 91.0808C310.501 91.528 310.741 92.1288 310.766 92.8834C310.766 93.5821 310.552 94.183 310.122 94.6861C309.692 95.1892 309.149 95.4407 308.492 95.4407C307.835 95.4407 307.292 95.2031 306.862 94.728C306.433 94.2529 306.205 93.652 306.18 92.9254Z" fill="black"/>
<path d="M323.036 92.9254C323.036 92.2546 323.251 91.6677 323.681 91.1646C324.11 90.6616 324.653 90.41 325.31 90.41C325.917 90.41 326.448 90.6336 326.902 91.0808C327.357 91.528 327.597 92.1288 327.623 92.8834C327.623 93.5821 327.408 94.183 326.978 94.6861C326.549 95.1892 326.005 95.4407 325.348 95.4407C324.691 95.4407 324.148 95.2031 323.718 94.728C323.289 94.2529 323.061 93.652 323.036 92.9254Z" fill="black"/>
<path d="M339.893 92.9254C339.893 92.2546 340.107 91.6677 340.537 91.1646C340.967 90.6616 341.51 90.41 342.167 90.41C342.773 90.41 343.304 90.6336 343.759 91.0808C344.214 91.528 344.454 92.1288 344.479 92.8834C344.479 93.5821 344.264 94.183 343.835 94.6861C343.405 95.1892 342.862 95.4407 342.205 95.4407C341.548 95.4407 341.004 95.2031 340.575 94.728C340.145 94.2529 339.918 93.652 339.893 92.9254Z" fill="black"/>
<path d="M356.746 92.9254C356.746 92.2546 356.96 91.6677 357.39 91.1646C357.82 90.6616 358.363 90.41 359.02 90.41C359.626 90.41 360.157 90.6336 360.612 91.0808C361.067 91.528 361.307 92.1288 361.332 92.8834C361.332 93.5821 361.117 94.183 360.688 94.6861C360.258 95.1892 359.715 95.4407 359.058 95.4407C358.401 95.4407 357.858 95.2031 357.428 94.728C356.998 94.2529 356.771 93.652 356.746 92.9254Z" fill="black"/>
<path d="M373.602 92.9254C373.602 92.2546 373.817 91.6677 374.246 91.1646C374.676 90.6616 375.219 90.41 375.876 90.41C376.483 90.41 377.014 90.6336 377.468 91.0808C377.923 91.528 378.163 92.1288 378.189 92.8834C378.189 93.5821 377.974 94.183 377.544 94.6861C377.115 95.1892 376.571 95.4407 375.914 95.4407C375.257 95.4407 374.714 95.2031 374.284 94.728C373.855 94.2529 373.627 93.652 373.602 92.9254Z" fill="black"/>
<path d="M389.625 85.5051C389.625 85.5051 389.625 85.3235 389.625 84.9601C389.625 84.5968 389.801 84.3173 390.155 84.1217H401.489V77.8333L401.527 71.545C401.779 71.1817 402.02 71 402.247 71C402.575 71 402.828 71.2096 403.005 71.6288V84.1217H414.301C414.68 84.3453 414.869 84.6247 414.869 84.9601C414.869 85.2955 414.68 85.575 414.301 85.7986H403.005V98.2914C402.803 98.6827 402.575 98.8783 402.323 98.8783H402.247H402.171C401.868 98.8783 401.64 98.6827 401.489 98.2914V85.7986H390.155C389.801 85.6029 389.625 85.3235 389.625 84.9601V85.5051Z" fill="black"/>
<path d="M418.963 83.3252C419.14 82.1513 419.822 80.7959 421.01 79.2587C422.198 77.7216 423.664 76.939 425.407 76.9111C426.292 76.9111 427.1 77.1626 427.833 77.6657C428.566 78.1687 429.109 78.7976 429.463 79.5522C430.524 77.7914 431.801 76.9111 433.291 76.9111C434.226 76.9111 435.035 77.2185 435.717 77.8333C436.4 78.4482 436.753 79.2727 436.779 80.3068C436.779 81.1173 436.602 81.774 436.248 82.2771C435.894 82.7802 435.553 83.0876 435.225 83.1994C434.896 83.3112 434.606 83.3671 434.353 83.3671C433.873 83.3671 433.481 83.2134 433.178 82.9059C432.874 82.5985 432.723 82.1933 432.723 81.6902C432.723 80.4046 433.355 79.5242 434.618 79.0491C434.34 78.6858 433.835 78.5041 433.102 78.5041C432.773 78.5041 432.533 78.5321 432.382 78.5879C431.421 79.0351 430.714 79.9574 430.259 81.3548C428.743 87.5314 427.985 91.1367 427.985 92.1708C427.985 92.9533 428.187 93.5123 428.591 93.8477C428.996 94.183 429.438 94.3507 429.918 94.3507C430.853 94.3507 431.775 93.8896 432.685 92.9673C433.595 92.045 434.214 90.9131 434.542 89.5716C434.618 89.2921 434.694 89.1384 434.77 89.1104C434.846 89.0825 435.048 89.0545 435.376 89.0266H435.528C435.907 89.0266 436.096 89.1384 436.096 89.362C436.096 89.3899 436.071 89.5436 436.021 89.8231C435.616 91.4162 434.833 92.8276 433.671 94.0573C432.508 95.287 431.156 95.9019 429.615 95.9019C427.846 95.9019 426.506 95.0215 425.597 93.2608C424.561 94.9935 423.373 95.8599 422.034 95.8599H421.806C420.568 95.8599 419.683 95.4966 419.153 94.77C418.622 94.0433 418.344 93.2747 418.319 92.4642C418.319 91.5699 418.559 90.8432 419.039 90.2843C419.519 89.7253 420.088 89.4458 420.745 89.4458C421.831 89.4458 422.375 90.0327 422.375 91.2066C422.375 91.7655 422.223 92.2546 421.92 92.6738C421.617 93.0931 421.326 93.3725 421.048 93.5123C420.77 93.652 420.606 93.7219 420.555 93.7219L420.442 93.7638C420.442 93.7918 420.517 93.8477 420.669 93.9315C420.821 94.0154 421.023 94.1132 421.275 94.225C421.528 94.3368 421.768 94.3787 421.996 94.3507C422.905 94.3507 423.689 93.7219 424.346 92.4642C424.573 92.0171 424.864 91.0668 425.218 89.6135C425.571 88.1602 425.925 86.651 426.279 85.0859C426.633 83.5208 426.835 82.5985 426.885 82.319C427.012 81.5644 427.075 81.0194 427.075 80.6841C427.075 79.9015 426.885 79.3426 426.506 79.0072C426.127 78.6718 425.698 78.5041 425.218 78.5041C424.207 78.5041 423.259 78.9513 422.375 79.8456C421.49 80.74 420.871 81.8858 420.517 83.2832C420.467 83.5348 420.404 83.6745 420.328 83.7025C420.252 83.7304 420.05 83.7584 419.721 83.7863H419.191C419.039 83.6186 418.963 83.4649 418.963 83.3252Z" fill="black"/>
<path d="M439.237 93.2226C439.255 93.1041 439.281 92.946 439.317 92.7484C439.353 92.5508 439.46 92.1754 439.639 91.6221C439.817 91.0689 439.996 90.6045 440.175 90.2291C440.353 89.8537 440.648 89.4881 441.059 89.1325C441.47 88.7768 441.881 88.6088 442.292 88.6286C442.935 88.6286 443.471 88.8064 443.9 89.1621C444.329 89.5178 444.597 89.8537 444.704 90.1698C444.811 90.486 444.865 90.6934 444.865 90.7922C444.865 90.8318 444.874 90.8515 444.891 90.8515L445.186 90.5255C446.276 89.2609 447.518 88.6286 448.911 88.6286C449.876 88.6286 450.653 88.8953 451.243 89.4288C451.832 89.9623 452.136 90.7428 452.154 91.7703C452.172 92.7978 451.832 94.3489 451.136 96.4237C450.439 98.4984 450.099 99.7531 450.117 100.188C450.117 100.702 450.269 100.958 450.573 100.958C450.68 100.958 450.76 100.949 450.814 100.929C451.332 100.83 451.797 100.455 452.208 99.8025C452.618 99.1505 452.931 98.3601 453.146 97.4314C453.181 97.2733 453.36 97.1943 453.681 97.1943C454.039 97.1943 454.217 97.2733 454.217 97.4314C454.217 97.4512 454.182 97.5993 454.11 97.876C453.967 98.449 453.771 99.0121 453.521 99.5654C453.271 100.119 452.86 100.672 452.288 101.225C451.716 101.778 451.1 102.045 450.439 102.025C449.599 102.025 448.992 101.759 448.616 101.225C448.241 100.692 448.054 100.138 448.054 99.5654C448.054 99.19 448.375 98.0044 449.018 96.0087C449.662 94.013 449.992 92.5113 450.01 91.5036C450.01 90.3378 449.617 89.7549 448.831 89.7549H448.697C447.16 89.7549 445.865 90.7527 444.811 92.7484L444.623 93.1041L443.739 97.0757C443.149 99.6642 442.81 101.057 442.721 101.255C442.488 101.788 442.104 102.055 441.568 102.055C441.336 102.055 441.148 101.996 441.006 101.877C440.863 101.759 440.764 101.64 440.711 101.522C440.657 101.403 440.639 101.304 440.657 101.225C440.657 100.968 440.997 99.3579 441.676 96.394C442.354 93.4301 442.712 91.8197 442.747 91.5629C442.765 91.4641 442.774 91.2368 442.774 90.8812C442.774 90.1105 442.56 89.7252 442.131 89.7252C441.452 89.7252 440.889 90.7132 440.443 92.6891C440.336 93.0843 440.282 93.2918 440.282 93.3116C440.246 93.4301 440.077 93.4894 439.773 93.4894H439.398C439.29 93.3708 439.237 93.2819 439.237 93.2226Z" fill="black"/>
<path d="M286.041 140.507C286.066 140.339 286.104 140.116 286.154 139.836C286.205 139.557 286.357 139.026 286.609 138.243C286.862 137.461 287.115 136.804 287.367 136.273C287.62 135.742 288.037 135.225 288.618 134.722C289.2 134.219 289.781 133.981 290.362 134.009C291.272 134.009 292.03 134.261 292.636 134.764C293.243 135.267 293.622 135.742 293.773 136.189C293.925 136.636 294.001 136.93 294.001 137.07C294.001 137.125 294.014 137.153 294.039 137.153L294.456 136.692C295.997 134.904 297.754 134.009 299.725 134.009C301.089 134.009 302.188 134.387 303.022 135.141C303.856 135.896 304.286 137 304.311 138.453C304.336 139.906 303.856 142.1 302.871 145.035C301.885 147.969 301.405 149.744 301.43 150.359C301.43 151.086 301.645 151.449 302.075 151.449C302.226 151.449 302.34 151.435 302.416 151.407C303.149 151.267 303.806 150.736 304.387 149.814C304.968 148.892 305.41 147.774 305.714 146.46C305.764 146.237 306.017 146.125 306.472 146.125C306.977 146.125 307.23 146.237 307.23 146.46C307.23 146.488 307.179 146.698 307.078 147.089C306.876 147.899 306.598 148.696 306.244 149.479C305.891 150.261 305.309 151.044 304.501 151.826C303.692 152.609 302.82 152.986 301.885 152.958C300.697 152.958 299.838 152.581 299.308 151.826C298.777 151.072 298.512 150.289 298.512 149.479C298.512 148.948 298.966 147.271 299.876 144.448C300.786 141.625 301.253 139.501 301.279 138.076C301.279 136.427 300.723 135.602 299.611 135.602H299.421C297.248 135.602 295.416 137.014 293.925 139.836L293.66 140.339L292.409 145.957C291.575 149.618 291.095 151.589 290.968 151.868C290.64 152.623 290.097 153 289.339 153C289.01 153 288.745 152.916 288.543 152.748C288.34 152.581 288.201 152.413 288.126 152.245C288.05 152.078 288.024 151.938 288.05 151.826C288.05 151.463 288.53 149.185 289.49 144.993C290.45 140.801 290.956 138.523 291.006 138.16C291.032 138.02 291.044 137.698 291.044 137.195C291.044 136.105 290.741 135.56 290.135 135.56C289.174 135.56 288.378 136.958 287.747 139.753C287.595 140.312 287.519 140.605 287.519 140.633C287.469 140.801 287.228 140.884 286.799 140.884H286.268C286.117 140.717 286.041 140.591 286.041 140.507Z" fill="black"/>
<path d="M460.439 114.557H132.793V112.042H460.439V114.557Z" fill="black"/>
</g>
<defs>
<clipPath id="clip0">
<rect width="409" height="82" fill="white" transform="translate(56 71)"/>
</clipPath>
</defs>
</svg>
